<svg xmlns="http://www.w3.org/2000/svg" xmlns:xlink="http://www.w3.org/1999/xlink" id="图层_1" x="0" y="0" enable-background="new 0 0 24 24" version="1.1" viewBox="0 0 24 24" xml:space="preserve"><g><rect width="4" height="1" x="11" y="3" fill="#B5B5B6"/><path fill="#B5B5B6" d="M20.579,4H15v10.546l-1.974-2.455L11,14.546V4H4.5C4.224,4,4,3.776,4,3.5v-1C4,2.224,4.224,2,4.5,2h16.091 C20.817,2,21,1.726,21,1.5C21,1.274,20.817,1,20.591,1H4.5C3.672,1,3,1.672,3,2.5V21c0,0.552,0.448,1,1,1h16c0.552,0,1-0.448,1-1 V4.421C21,4.189,20.811,4,20.579,4z"/></g></svg>