<svg xmlns="http://www.w3.org/2000/svg" xmlns:xlink="http://www.w3.org/1999/xlink" id="图层_1" x="0" y="0" enable-background="new 0 0 64 64" version="1.1" viewBox="0 0 64 64" xml:space="preserve"><g><g><rect width="30" height="4" x="17" y="36" fill="#B5B5B6"/><rect width="30" height="4" x="17" y="43" fill="#B5B5B6"/><path fill="#B5B5B6" d="M53.446,18.961l-8.305-8.393C44.781,10.204,44.291,10,43.78,10H13c-1.657,0-3,1.343-3,3v38 c0,1.657,1.343,3,3,3h38c1.657,0,3-1.343,3-3V20.309C54,19.804,53.801,19.319,53.446,18.961z M19,14h23v11h-3v-6h-4v6H19V14z M50,50H14V33h36V50z"/></g></g></svg>