<svg xmlns="http://www.w3.org/2000/svg" xmlns:xlink="http://www.w3.org/1999/xlink" id="图层_1" x="0" y="0" enable-background="new 0 0 24 24" version="1.1" viewBox="0 0 24 24" xml:space="preserve"><g><path fill="#B5B5B6" fill-rule="evenodd" d="M16.202,8.615L19,11.404V4h-7.429l2.786,2.777L12.154,8.98 L12.174,9H2v1v4v3v3v0.039C2,20.562,2.424,21,2.947,21H3h3h3h5h0V10.817L16.202,8.615z" clip-rule="evenodd"/><rect width="5" height="1" x="9" y="2" fill="#B5B5B6" fill-rule="evenodd" clip-rule="evenodd"/><path fill="#B5B5B6" fill-rule="evenodd" d="M3,3h3V2H3C2.448,2,2,2.448,2,3v3h1V3z" clip-rule="evenodd"/><rect width="1" height="6" x="20" y="8" fill="#B5B5B6" fill-rule="evenodd" clip-rule="evenodd"/><path fill="#B5B5B6" fill-rule="evenodd" d="M20,2h-3v1h3v3h1V3C21,2.448,20.552,2,20,2z" clip-rule="evenodd"/><path fill="#B5B5B6" fill-rule="evenodd" d="M20,20h-3v1h3c0.552,0,1-0.448,1-1v-3h-1V20z" clip-rule="evenodd"/></g></svg>