<svg xmlns="http://www.w3.org/2000/svg" xmlns:xlink="http://www.w3.org/1999/xlink" width="64" height="64" version="1.1" viewBox="0 0 64 64"><title>使用入门-64px</title><desc>Created with Sketch.</desc><g id="Page-1" fill="none" fill-rule="evenodd" stroke="none" stroke-width="1"><g id="使用入门-64px" fill="#B5B5B6"><path id="Combined-Shape" d="M32,57 C45.8071187,57 57,45.8071187 57,32 C57,18.1928813 45.8071187,7 32,7 C18.1928813,7 7,18.1928813 7,32 C7,45.8071187 18.1928813,57 32,57 Z M39,30 L14.9997073,30 C13.8898926,30 13,30.8954305 13,32 C13,33.1122704 13.8952994,34 14.9997073,34 L39,34 L39,41.008845 C39,42.1103261 39.6847773,42.420573 40.529493,41.7058136 L50.470507,33.2941864 C51.3193671,32.5759201 51.3152227,31.420573 50.470507,30.7058136 L40.529493,22.2941864 C39.6806329,21.5759201 39,21.8914705 39,22.991155 L39,30 Z"/></g></g></svg>