<svg xmlns="http://www.w3.org/2000/svg" xmlns:xlink="http://www.w3.org/1999/xlink" width="22" height="26" version="1.1" viewBox="0 0 22 26"><title>椭圆</title><desc>Created with Sketch.</desc><defs><polygon id="path-1" points="8.829 20 0 20 0 .558 13.32 14.096"/><filter id="filter-2" width="175.1%" height="151.4%" x="-37.5%" y="-20.6%" filterUnits="objectBoundingBox"><feOffset dx="0" dy="1" in="SourceAlpha" result="shadowOffsetOuter1"/><feGaussianBlur in="shadowOffsetOuter1" result="shadowBlurOuter1" stdDeviation="1.5"/><feColorMatrix in="shadowBlurOuter1" type="matrix" values="0 0 0 0 0 0 0 0 0 0 0 0 0 0 0 0 0 0 0.4 0"/></filter><linearGradient id="linearGradient-3" x1="50%" x2="50%" y1="0%" y2="100%"><stop offset="0%" stop-color="#393939"/><stop offset="100%" stop-color="#000"/></linearGradient><path id="path-4" d="M13,1 C11.8967677,1 11,1.89746386 11,3 C11,4.10323225 11.8974639,5 13,5 C14.1032323,5 15,4.10253614 15,3 C15,1.89676775 14.1025361,1 13,1 Z M13,0 C14.6534829,0 16,1.34314575 16,3 C16,4.65348288 14.6568542,6 13,6 C11.3465171,6 10,4.65685425 10,3 C10,1.34651712 11.3431458,0 13,0 Z"/></defs><g id="Page-1" fill="none" fill-rule="evenodd" stroke="none" stroke-width="1"><g id="椭圆" transform="translate(3.000000, 2.000000)"><g id="Group"><g id="path5565-copy-2" fill-rule="nonzero"><use fill="#000" fill-opacity="1" filter="url(#filter-2)" xlink:href="#path-1"/><use fill="#FFF" fill-rule="evenodd" xlink:href="#path-1"/></g><polygon id="Path" fill="url(#linearGradient-3)" points="1 19 8.333 19 12 14.18 1 3"/></g><g id="Rectangle-79" fill-rule="nonzero"><use fill="#FFF" fill-rule="evenodd" xlink:href="#path-4"/><path stroke="#000" stroke-opacity=".2" stroke-width="1" d="M13,1.5 C13.826661,1.5 14.5,2.17317727 14.5,3 C14.5,3.82666096 13.8268227,4.5 13,4.5 C12.173339,4.5 11.5,3.82682273 11.5,3 C11.5,2.17333904 12.1731773,1.5 13,1.5 Z M13,-0.5 C14.9307028,-0.5 16.5,1.06807996 16.5,3 C16.5,4.93070282 14.93192,6.5 13,6.5 C11.0692972,6.5 9.5,4.93192004 9.5,3 C9.5,1.06929718 11.06808,-0.5 13,-0.5 Z"/></g></g></g></svg>