<svg xmlns="http://www.w3.org/2000/svg" xmlns:xlink="http://www.w3.org/1999/xlink" width="22" height="26" version="1.1" viewBox="0 0 22 26"><title>矩形</title><desc>Created with Sketch.</desc><defs><polygon id="path-1" points="8.829 20 0 20 0 .558 13.32 14.096"/><filter id="filter-2" width="175.1%" height="151.4%" x="-37.5%" y="-20.6%" filterUnits="objectBoundingBox"><feOffset dx="0" dy="1" in="SourceAlpha" result="shadowOffsetOuter1"/><feGaussianBlur in="shadowOffsetOuter1" result="shadowBlurOuter1" stdDeviation="1.5"/><feColorMatrix in="shadowBlurOuter1" type="matrix" values="0 0 0 0 0 0 0 0 0 0 0 0 0 0 0 0 0 0 0.4 0"/></filter><linearGradient id="linearGradient-3" x1="50%" x2="50%" y1="0%" y2="100%"><stop offset="0%" stop-color="#393939"/><stop offset="100%" stop-color="#000"/></linearGradient><path id="path-4" d="M11,5 L15,5 L15,1 L11,1 L11,5 Z M10,0 L16,0 L16,6 L10,6 L10,0 Z"/></defs><g id="Page-1" fill="none" fill-rule="evenodd" stroke="none" stroke-width="1"><g id="矩形" transform="translate(3.000000, 2.000000)"><g id="Group"><g id="path5565-copy-2" fill-rule="nonzero"><use fill="#000" fill-opacity="1" filter="url(#filter-2)" xlink:href="#path-1"/><use fill="#FFF" fill-rule="evenodd" xlink:href="#path-1"/></g><polygon id="Path" fill="url(#linearGradient-3)" points="1 19 8.333 19 12 14.18 1 3"/></g><g id="Rectangle-79" fill-rule="nonzero"><use fill="#FFF" fill-rule="evenodd" xlink:href="#path-4"/><path stroke="#000" stroke-opacity=".2" stroke-width="1" d="M11.5,1.5 L11.5,1 L11,1.5 L11.5,1.5 Z M14.5,1.5 L15,1.5 L14.5,1 L14.5,1.5 Z M14.5,4.5 L14.5,5 L15,4.5 L14.5,4.5 Z M11.5,4.5 L11,4.5 L11.5,5 L11.5,4.5 Z M11.5,4.5 L11.5,1.5 L14.5,1.5 L14.5,4.5 L11.5,4.5 Z M9.5,-0.5 L16.5,-0.5 L16.5,6.5 L9.5,6.5 L9.5,-0.5 Z"/></g></g></g></svg>