<svg xmlns="http://www.w3.org/2000/svg" xmlns:xlink="http://www.w3.org/1999/xlink" id="图层_1" x="0" y="0" enable-background="new 0 0 20 20" version="1.1" viewBox="0 0 20 20" xml:space="preserve"><g><path fill="#898989" d="M14.526,6H14H8H6.026C5.474,6,5,6.448,5,7v9c0,0.552,0.416,1,0.969,1h10.063C16.583,17,17,16.552,17,16V8.5 L14.526,6z M12,8v2h-2V8H12z M15,15H7V8h1v4h6V8.438l1,0.875V15z"/><path fill="#898989" d="M6,5h5V4h2v1h1V4h-0.013C13.953,3,13.53,3,13,3H3.936C3.419,3,3,3.419,3,3.936V14c0,0.552,0.448,1,1,1V4h2 V5z"/></g></svg>